<svg width="17" height="17" viewBox="0 0 17 17" fill="none" xmlns="http://www.w3.org/2000/svg">
<path fill-rule="evenodd" clip-rule="evenodd" d="M11.5537 10.8687H12.3108L16.3742 14.9512C16.7671 15.3441 16.7671 15.9862 16.3742 16.3791C15.9812 16.772 15.3392 16.772 14.9462 16.3791L10.8733 12.3062V11.5491L10.6146 11.2808C9.2729 12.4308 7.44249 13.0249 5.49707 12.6991C2.8329 12.2487 0.705404 10.0253 0.379571 7.34202C-0.118762 3.28827 3.2929 -0.123401 7.34665 0.374932C10.03 0.700766 12.2533 2.82827 12.7037 5.49243C13.0296 7.43785 12.4354 9.26827 11.2854 10.6099L11.5537 10.8687ZM2.24832 6.55618C2.24832 8.94243 4.17457 10.8687 6.56082 10.8687C8.94707 10.8687 10.8733 8.94243 10.8733 6.55618C10.8733 4.16993 8.94707 2.24368 6.56082 2.24368C4.17457 2.24368 2.24832 4.16993 2.24832 6.55618Z" fill="#6D7D8B"/>
</svg>
