<svg width="21" height="21" viewBox="0 0 21 21" fill="none" xmlns="http://www.w3.org/2000/svg">
<path d="M10.914 2.84101C9.15524 1.08226 6.52149 0.72351 4.40399 1.75601L7.58024 4.93226C7.92149 5.27351 7.92149 5.82476 7.58024 6.16601L6.18899 7.55726C5.84774 7.90726 5.29649 7.90726 4.95524 7.55726L1.77899 4.38101C0.755239 6.50726 1.11399 9.12351 2.87274 10.8823C4.50024 12.5098 6.88024 12.9385 8.90149 12.1773L15.8665 19.1423C16.7677 20.0435 18.2202 20.0435 19.1127 19.1423C20.014 18.241 20.014 16.7885 19.1127 15.896L12.1827 8.95726C12.9877 6.90976 12.5677 4.49476 10.914 2.84101Z" fill="white"/>
</svg>
