<svg width="56" height="56" viewBox="0 0 56 56" fill="none" xmlns="http://www.w3.org/2000/svg">
<g clip-path="url(#clip0_142_260)">
<circle cx="28" cy="28" r="28" fill="#DAE3EA"/>
<path fill-rule="evenodd" clip-rule="evenodd" d="M33.3334 22.6667C33.3334 25.6134 30.9467 28 28 28C25.0534 28 22.6667 25.6134 22.6667 22.6667C22.6667 19.72 25.0534 17.3334 28 17.3334C30.9467 17.3334 33.3334 19.72 33.3334 22.6667ZM17.3334 36C17.3334 32.4534 24.44 30.6667 28 30.6667C31.56 30.6667 38.6667 32.4534 38.6667 36V37.3334C38.6667 38.0667 38.0667 38.6667 37.3334 38.6667H18.6667C17.9334 38.6667 17.3334 38.0667 17.3334 37.3334V36Z" fill="#94A3B1"/>
</g>
<defs>
<clipPath id="clip0_142_260">
<rect width="56" height="56" fill="white"/>
</clipPath>
</defs>
</svg>
