<svg width="35" height="35" viewBox="0 0 35 35" fill="none" xmlns="http://www.w3.org/2000/svg">
<path d="M26.6875 8.32711C26.4151 8.05403 26.0452 7.90057 25.6594 7.90057C25.2737 7.90057 24.9038 8.05403 24.6313 8.32711L17.5 15.4438L10.3688 8.31253C10.0963 8.03945 9.72643 7.88599 9.34067 7.88599C8.95492 7.88599 8.58501 8.03945 8.31255 8.31253C7.7438 8.88128 7.7438 9.80003 8.31255 10.3688L15.4438 17.5L8.31255 24.6313C7.7438 25.2 7.7438 26.1188 8.31255 26.6875C8.8813 27.2563 9.80005 27.2563 10.3688 26.6875L17.5 19.5563L24.6313 26.6875C25.2 27.2563 26.1188 27.2563 26.6875 26.6875C27.2563 26.1188 27.2563 25.2 26.6875 24.6313L19.5563 17.5L26.6875 10.3688C27.2417 9.81461 27.2417 8.88128 26.6875 8.32711Z" fill="#6D7D8B"/>
<rect x="0.5" y="0.5" width="34" height="34" rx="3.5" stroke="black" stroke-opacity="0.2"/>
</svg>
