<svg width="195" height="26" viewBox="0 0 195 26" fill="none" xmlns="http://www.w3.org/2000/svg">
<path d="M46.536 21V9.21H42.558V7.806H52.206V9.21H48.228V21H46.536ZM56.9697 21.252C55.3317 21.252 54.1077 20.226 54.1077 18.462C54.1077 16.338 55.9437 15.276 60.1017 14.808C60.1017 13.548 59.7057 12.342 58.1037 12.342C56.9517 12.342 55.9257 12.882 55.1697 13.404L54.5217 12.252C55.4217 11.676 56.7897 10.992 58.3557 10.992C60.7497 10.992 61.7577 12.576 61.7577 15.006V21H60.4077L60.2637 19.848H60.1917C59.2737 20.622 58.1757 21.252 56.9697 21.252ZM57.4197 19.92C58.3737 19.92 59.1657 19.47 60.1017 18.624V15.906C56.8077 16.284 55.7097 17.094 55.7097 18.354C55.7097 19.47 56.4657 19.92 57.4197 19.92ZM69.2183 21.252C67.8323 21.252 66.4823 20.658 65.5643 19.902L66.3743 18.804C67.2203 19.488 68.0843 19.974 69.2543 19.974C70.5503 19.974 71.1983 19.29 71.1983 18.426C71.1983 17.436 70.0283 16.986 68.9483 16.59C67.5983 16.068 66.1043 15.42 66.1043 13.746C66.1043 12.198 67.3463 10.992 69.4703 10.992C70.6763 10.992 71.7563 11.478 72.5123 12.09L71.7203 13.134C71.0543 12.648 70.3523 12.27 69.4883 12.27C68.2463 12.27 67.6883 12.918 67.6883 13.674C67.6883 14.61 68.6783 14.97 69.7943 15.366C71.2163 15.906 72.7643 16.482 72.7643 18.336C72.7643 19.938 71.5223 21.252 69.2183 21.252ZM76.8822 21V6.69H78.5022V16.392H78.5562L82.7142 11.226H84.5502L81.2922 15.168L84.9642 21H83.1822L80.3202 16.284L78.5022 18.426V21H76.8822ZM96.0412 21L93.2332 7.806H94.9432L96.3292 15.006C96.5992 16.41 96.8512 17.832 97.1212 19.272H97.1932C97.4992 17.832 97.8232 16.41 98.1472 15.006L99.9652 7.806H101.477L103.313 15.006C103.637 16.41 103.943 17.832 104.267 19.272H104.357C104.609 17.832 104.861 16.41 105.095 15.006L106.499 7.806H108.101L105.365 21H103.349L101.369 13.044C101.135 12.018 100.919 11.064 100.721 10.038H100.649C100.433 11.064 100.199 12.018 99.9832 13.044L98.0212 21H96.0412ZM115.84 21.252C113.428 21.252 111.304 19.362 111.304 16.14C111.304 12.864 113.428 10.992 115.84 10.992C118.234 10.992 120.358 12.864 120.358 16.14C120.358 19.362 118.234 21.252 115.84 21.252ZM115.84 19.884C117.532 19.884 118.666 18.372 118.666 16.14C118.666 13.872 117.532 12.36 115.84 12.36C114.13 12.36 112.996 13.872 112.996 16.14C112.996 18.372 114.13 19.884 115.84 19.884ZM124.758 21V11.226H126.09L126.252 13.008H126.306C126.972 11.766 127.98 10.992 129.078 10.992C129.51 10.992 129.798 11.046 130.122 11.19L129.816 12.63C129.474 12.522 129.258 12.468 128.862 12.468C128.052 12.468 127.044 13.062 126.396 14.736V21H124.758ZM133.536 21V6.69H135.156V16.392H135.21L139.368 11.226H141.204L137.946 15.168L141.618 21H139.836L136.974 16.284L135.156 18.426V21H133.536ZM145.52 21V9.66C145.52 7.698 146.438 6.438 148.382 6.438C148.976 6.438 149.552 6.582 150.002 6.762L149.66 8.022C149.282 7.86 148.904 7.77 148.544 7.77C147.608 7.77 147.158 8.418 147.158 9.696V21H145.52ZM144.188 12.558V11.334L145.61 11.226H149.246V12.558H144.188ZM152.846 21.252C151.622 21.252 151.118 20.46 151.118 19.056V6.69H152.756V19.164C152.756 19.686 152.972 19.884 153.224 19.884C153.314 19.884 153.386 19.884 153.584 19.848L153.782 21.108C153.566 21.18 153.296 21.252 152.846 21.252ZM161.852 21.252C159.44 21.252 157.316 19.362 157.316 16.14C157.316 12.864 159.44 10.992 161.852 10.992C164.246 10.992 166.37 12.864 166.37 16.14C166.37 19.362 164.246 21.252 161.852 21.252ZM161.852 19.884C163.544 19.884 164.678 18.372 164.678 16.14C164.678 13.872 163.544 12.36 161.852 12.36C160.142 12.36 159.008 13.872 159.008 16.14C159.008 18.372 160.142 19.884 161.852 19.884ZM172.195 21L169.459 11.226H171.133L172.609 16.896C172.807 17.832 172.987 18.696 173.167 19.614H173.257C173.473 18.696 173.671 17.814 173.923 16.896L175.435 11.226H177.037L178.585 16.896C178.819 17.832 179.035 18.696 179.269 19.614H179.341C179.539 18.696 179.719 17.832 179.953 16.896L181.375 11.226H182.941L180.313 21H178.315L176.893 15.744C176.641 14.808 176.461 13.926 176.227 12.918H176.137C175.939 13.926 175.741 14.826 175.471 15.762L174.103 21H172.195Z" fill="#13283A"/>
<circle cx="2.5" cy="19.5" r="2.5" fill="#13283A"/>
<circle cx="16.5" cy="9.5" r="2.5" fill="#13283A"/>
<circle cx="32.5" cy="14.5" r="2.5" fill="#13283A"/>
<line x1="3.72265" y1="18.584" x2="15.7227" y2="10.584" stroke="#13283A"/>
<line x1="17.1491" y1="9.52276" x2="33.1491" y2="14.5228" stroke="#13283A"/>
</svg>
