<svg width="19" height="17" viewBox="0 0 19 17" fill="none" xmlns="http://www.w3.org/2000/svg">
<path d="M4.97637 14.1958L0.419336 9.53594C0.152147 9.26272 0 8.88705 0 8.5C0 8.11295 0.152147 7.73728 0.419336 7.46406L4.97637 2.80424C5.21387 2.56138 5.53301 2.42857 5.86699 2.42857C6.56094 2.42857 7.125 3.00536 7.125 3.71496L7.125 6.07143H11.875C12.5318 6.07143 13.0625 6.61406 13.0625 7.28571V9.71429C13.0625 10.3859 12.5318 10.9286 11.875 10.9286L7.125 10.9286L7.125 13.285C7.125 13.9946 6.56094 14.5714 5.86699 14.5714C5.53301 14.5714 5.21387 14.4348 4.97637 14.1958ZM13.0625 14.5714L15.4375 14.5714C16.0943 14.5714 16.625 14.0288 16.625 13.3571L16.625 3.64286C16.625 2.9712 16.0943 2.42857 15.4375 2.42857L13.0625 2.42857C12.4057 2.42857 11.875 1.88594 11.875 1.21429C11.875 0.542633 12.4057 0 13.0625 0H15.4375C17.4043 0 19 1.6317 19 3.64286L19 13.3571C19 15.3683 17.4043 17 15.4375 17H13.0625C12.4057 17 11.875 16.4574 11.875 15.7857C11.875 15.1141 12.4057 14.5714 13.0625 14.5714Z" fill="#13283A"/>
</svg>
