<svg width="309" height="62" viewBox="0 0 309 62" fill="none" xmlns="http://www.w3.org/2000/svg">
<g clip-path="url(#clip0_21_1400)">
<path d="M30.9 45.259L41.5863 51.7432C43.5433 52.9315 45.938 51.1748 45.423 48.9532L42.5905 36.7598L52.0408 28.5448C53.766 27.0465 52.839 24.2048 50.573 24.024L38.1358 22.9648L33.269 11.4432C32.3935 9.35065 29.4065 9.35065 28.531 11.4432L23.6643 22.939L11.227 23.9982C8.96101 24.179 8.03401 27.0207 9.75926 28.519L19.2095 36.734L16.377 48.9273C15.862 51.149 18.2568 52.9057 20.2138 51.7173L30.9 45.259V45.259Z" fill="#FFBB00"/>
<path d="M216.3 45.259L226.986 51.7432C228.943 52.9315 231.338 51.1748 230.823 48.9532L227.99 36.7598L237.441 28.5448C239.166 27.0465 238.239 24.2048 235.973 24.024L223.536 22.9648L218.669 11.4432C217.793 9.35065 214.806 9.35065 213.931 11.4432L209.064 22.939L196.627 23.9982C194.361 24.179 193.434 27.0207 195.159 28.519L204.609 36.734L201.777 48.9273C201.262 51.149 203.657 52.9057 205.614 51.7173L216.3 45.259V45.259Z" fill="#FFBB00"/>
<path d="M154.5 45.259L165.186 51.7432C167.143 52.9315 169.538 51.1748 169.023 48.9532L166.191 36.7598L175.641 28.5448C177.366 27.0465 176.439 24.2048 174.173 24.024L161.736 22.9648L156.869 11.4432C155.994 9.35065 153.007 9.35065 152.131 11.4432L147.264 22.939L134.827 23.9982C132.561 24.179 131.634 27.0207 133.359 28.519L142.81 36.734L139.977 48.9273C139.462 51.149 141.857 52.9057 143.814 51.7173L154.5 45.259V45.259Z" fill="#FFBB00"/>
<path d="M92.7 45.259L103.386 51.7432C105.343 52.9315 107.738 51.1748 107.223 48.9532L104.39 36.7598L113.841 28.5448C115.566 27.0465 114.639 24.2048 112.373 24.024L99.9357 22.9648L95.069 11.4432C94.1935 9.35065 91.2065 9.35065 90.331 11.4432L85.4642 22.939L73.027 23.9982C70.761 24.179 69.834 27.0207 71.5592 28.519L81.0095 36.734L78.177 48.9273C77.662 51.149 80.0567 52.9057 82.0137 51.7173L92.7 45.259V45.259Z" fill="#FFBB00"/>
<path d="M278.1 45.259L288.786 51.7432C290.743 52.9315 293.138 51.1748 292.623 48.9532L289.79 36.7598L299.241 28.5448C300.966 27.0465 300.039 24.2048 297.773 24.024L285.336 22.9648L280.469 11.4432C279.593 9.35065 276.606 9.35065 275.731 11.4432L270.864 22.939L258.427 23.9982C256.161 24.179 255.234 27.0207 256.959 28.519L266.409 36.734L263.577 48.9273C263.062 51.149 265.457 52.9057 267.414 51.7173L278.1 45.259V45.259Z" fill="#FFBB00"/>
</g>
<defs>
<clipPath id="clip0_21_1400">
<rect width="309" height="62" fill="white"/>
</clipPath>
</defs>
</svg>
