<svg width="14" height="18" viewBox="0 0 14 18" fill="none" xmlns="http://www.w3.org/2000/svg">
<path fill-rule="evenodd" clip-rule="evenodd" d="M9 13.2962H5C4.45 13.2962 4 12.8462 4 12.2962V7.29622H2.41C1.52 7.29622 1.08 6.21622 1.71 5.58622L6.3 0.996221C6.48683 0.808968 6.74048 0.703735 7.005 0.703735C7.26952 0.703735 7.52317 0.808968 7.71 0.996221L12.3 5.58622C12.93 6.21622 12.48 7.29622 11.59 7.29622H10V12.2962C10 12.8462 9.55 13.2962 9 13.2962ZM13 15.2962H1C0.45 15.2962 0 15.7462 0 16.2962C0 16.8462 0.45 17.2962 1 17.2962H13C13.55 17.2962 14 16.8462 14 16.2962C14 15.7462 13.55 15.2962 13 15.2962Z" fill="#13283A"/>
</svg>
