<svg width="17" height="17" viewBox="0 0 17 17" fill="none" xmlns="http://www.w3.org/2000/svg">
<path d="M15.5634 0.806128C14.8791 0.121753 13.7728 0.121753 13.0884 0.806128L12.1478 1.74363L15.2072 4.803L16.1478 3.86238C16.8322 3.178 16.8322 2.07175 16.1478 1.38738L15.5634 0.806128ZM6.21343 7.68113C6.0228 7.87175 5.87593 8.10613 5.79155 8.3655L4.86655 11.1405C4.77593 11.4093 4.8478 11.7061 5.0478 11.9093C5.2478 12.1124 5.54468 12.1811 5.81655 12.0905L8.59155 11.1655C8.8478 11.0811 9.08218 10.9343 9.27593 10.7436L14.5041 5.51238L11.4416 2.44988L6.21343 7.68113ZM3.82593 2.128C2.16968 2.128 0.825928 3.47175 0.825928 5.128V13.128C0.825928 14.7843 2.16968 16.128 3.82593 16.128H11.8259C13.4822 16.128 14.8259 14.7843 14.8259 13.128V10.128C14.8259 9.57488 14.3791 9.128 13.8259 9.128C13.2728 9.128 12.8259 9.57488 12.8259 10.128V13.128C12.8259 13.6811 12.3791 14.128 11.8259 14.128H3.82593C3.2728 14.128 2.82593 13.6811 2.82593 13.128V5.128C2.82593 4.57488 3.2728 4.128 3.82593 4.128H6.82593C7.37905 4.128 7.82593 3.68113 7.82593 3.128C7.82593 2.57488 7.37905 2.128 6.82593 2.128H3.82593Z" fill="#13283A"/>
</svg>
