<svg width="31" height="30" viewBox="0 0 31 30" fill="none" xmlns="http://www.w3.org/2000/svg">
<g clip-path="url(#clip0_445_391)">
<circle cx="15" cy="15" r="14.5" fill="#DAE3EA" stroke="#94A3B1"/>
<path fill-rule="evenodd" clip-rule="evenodd" d="M17.8572 12.1429C17.8572 13.7215 16.5786 15.0001 15.0001 15.0001C13.4215 15.0001 12.1429 13.7215 12.1429 12.1429C12.1429 10.5643 13.4215 9.28577 15.0001 9.28577C16.5786 9.28577 17.8572 10.5643 17.8572 12.1429ZM9.28577 19.2858C9.28577 17.3858 13.0929 16.4286 15.0001 16.4286C16.9072 16.4286 20.7143 17.3858 20.7143 19.2858V20.0001C20.7143 20.3929 20.3929 20.7143 20.0001 20.7143H10.0001C9.6072 20.7143 9.28577 20.3929 9.28577 20.0001V19.2858Z" fill="#94A3B1"/>
</g>
<rect x="25" y="20" width="2" height="10" fill="#3A8AFF"/>
<rect x="21" y="26" width="2" height="10" transform="rotate(-90 21 26)" fill="#3A8AFF"/>
<defs>
<clipPath id="clip0_445_391">
<rect width="30" height="30" fill="white"/>
</clipPath>
</defs>
</svg>
