<svg width="20" height="20" viewBox="0 0 20 20" fill="none" xmlns="http://www.w3.org/2000/svg">
<path fill-rule="evenodd" clip-rule="evenodd" d="M2 0H18C19.1 0 20 0.9 20 2V14C20 15.1 19.1 16 18 16H4L0 20L0.01 2C0.01 0.9 0.9 0 2 0ZM5 12H15C15.55 12 16 11.55 16 11C16 10.45 15.55 10 15 10H5C4.45 10 4 10.45 4 11C4 11.55 4.45 12 5 12ZM15 9H5C4.45 9 4 8.55 4 8C4 7.45 4.45 7 5 7H15C15.55 7 16 7.45 16 8C16 8.55 15.55 9 15 9ZM5 6H15C15.55 6 16 5.55 16 5C16 4.45 15.55 4 15 4H5C4.45 4 4 4.45 4 5C4 5.55 4.45 6 5 6Z" fill="white"/>
</svg>
