<svg width="49" height="49" viewBox="0 0 49 49" fill="none" xmlns="http://www.w3.org/2000/svg">
<path fill-rule="evenodd" clip-rule="evenodd" d="M5.54167 0.125H43.4583C46.4375 0.125 48.875 2.5625 48.875 5.54167V43.4583C48.875 46.4375 46.4375 48.875 43.4583 48.875H5.54167C2.5625 48.875 0.125 46.4375 0.125 43.4583V5.54167C0.125 2.5625 2.5625 0.125 5.54167 0.125ZM17.1875 36.1187C18.2437 37.175 19.95 37.175 21.0062 36.1187L41.5354 15.5625C42.5917 14.5063 42.5917 12.8 41.5354 11.7438C40.4792 10.6875 38.7729 10.6875 37.7167 11.7438L19.0833 30.3771L11.2833 22.5771C10.2271 21.5208 8.52083 21.5208 7.46458 22.5771C6.95744 23.0831 6.67243 23.7701 6.67243 24.4865C6.67243 25.2029 6.95744 25.8898 7.46458 26.3958L17.1875 36.1187Z" fill="white"/>
</svg>
